<svg viewBox="0 0 640 400" data-background-color="#333366" preserveAspectRatio="xMidYMid meet" height="400" width="640" xmlns="http://www.w3.org/2000/svg" xmlns:xlink="http://www.w3.org/1999/xlink"><rect width="640" height="400" x="0" y="0" opacity="1" fill="#333366" data-fill-palette-color="background" id="background"></rect><g id="tight-bounds" transform="matrix(1,0,0,1,122.24000000000001,91.66456710464328)"><svg viewBox="0 0 395.52 216.67086579071344" height="216.67086579071344" width="395.52"><g><svg viewBox="0 0 395.52 216.67086579071344" height="216.67086579071344" width="395.52"><g transform="matrix(1,0,0,1,0,133.91128746269186)"><svg viewBox="0 0 395.52 82.75957832802158" height="82.75957832802158" width="395.52"><g><svg viewBox="0 0 395.52 82.75957832802158" height="82.75957832802158" width="395.52"><g><svg viewBox="0 0 395.52 82.75957832802158" height="82.75957832802158" width="395.52"><g transform="matrix(1,0,0,1,0,0)"><svg width="395.52" viewBox="4.079999923706055 -32.63999938964844 199.13999938964844 41.66999816894531" height="82.75957832802158" data-palette-color="#ffffff"><path d="M5.83 0.07Q4.08 0.07 4.08-0.88L4.08-0.88 4.08-31.69Q4.08-32.64 5.83-32.64L5.83-32.64 6.01-32.64Q7.74-32.64 7.74-31.69L7.74-31.69 7.74-12.28 7.91-12.28 16.21-22.19Q16.67-22.78 18.51-22.78L18.51-22.78 18.65-22.78Q19.41-22.78 19.8-22.63 20.19-22.49 20.19-22.24L20.19-22.24Q20.19-21.88 19.75-21.36L19.75-21.36 11.67-11.82 20.63-1.22Q21-0.81 21-0.54L21-0.54Q21-0.17 20.58-0.05 20.17 0.07 19.12 0.07L19.12 0.07 18.92 0.07Q18.02 0.07 17.46-0.02 16.89-0.12 16.58-0.49L16.58-0.49 7.91-10.79 7.74-10.79 7.74-0.88Q7.74 0.07 6.01 0.07L6.01 0.07 5.83 0.07ZM28.68 9.03Q27.27 9.03 27.27 8.33L27.27 8.33Q27.27 8.15 27.46 7.62L27.46 7.62 31.1-1.22 23.51-21.48Q23.48-21.58 23.43-21.77 23.39-21.95 23.39-22.05L23.39-22.05Q23.39-22.39 23.85-22.58 24.31-22.78 25.27-22.78L25.27-22.78 25.61-22.78Q27.07-22.78 27.34-22.09L27.34-22.09 31.76-10.33Q32.35-8.79 33.15-5.96L33.15-5.96 33.23-5.96 33.74-7.57Q33.86-7.93 34.15-8.83 34.45-9.72 34.69-10.33L34.69-10.33 39.01-22.09Q39.23-22.78 40.79-22.78L40.79-22.78 40.94-22.78Q42.65-22.78 42.65-22.05L42.65-22.05Q42.65-21.88 42.53-21.46L42.53-21.46 31.39 8.13Q31 9.03 29.34 9.03L29.34 9.03 28.68 9.03ZM53.8 0.24Q50.48 0.24 48.6-1.62 46.72-3.49 46.72-6.79L46.72-6.79 46.72-21.83Q46.72-22.78 48.48-22.78L48.48-22.78 48.65-22.78Q50.39-22.78 50.39-21.83L50.39-21.83 50.39-7.13Q50.39-5.13 51.55-4.02 52.7-2.91 54.8-2.91L54.8-2.91Q56.27-2.91 57.73-3.72 59.2-4.54 60.27-5.96L60.27-5.96 60.27-21.83Q60.27-22.78 62.01-22.78L62.01-22.78 62.18-22.78Q63.94-22.78 63.94-21.83L63.94-21.83 63.94-6.42Q63.94-3.59 64.18-2.33 64.42-1.07 64.42-0.95L64.42-0.95Q64.42-0.42 63.62-0.18 62.81 0.05 62.1 0.05L62.1 0.05Q61.49 0.05 61.2-0.65 60.91-1.34 60.77-2.08 60.64-2.81 60.59-3L60.59-3Q59.22-1.46 57.43-0.61 55.63 0.24 53.8 0.24L53.8 0.24ZM77.97 0.24Q74.65 0.24 72.77-1.62 70.89-3.49 70.89-6.79L70.89-6.79 70.89-21.83Q70.89-22.78 72.65-22.78L72.65-22.78 72.82-22.78Q74.55-22.78 74.55-21.83L74.55-21.83 74.55-7.13Q74.55-5.13 75.71-4.02 76.87-2.91 78.97-2.91L78.97-2.91Q80.44-2.91 81.9-3.72 83.37-4.54 84.44-5.96L84.44-5.96 84.44-21.83Q84.44-22.78 86.17-22.78L86.17-22.78 86.35-22.78Q88.1-22.78 88.1-21.83L88.1-21.83 88.1-6.42Q88.1-3.59 88.35-2.33 88.59-1.07 88.59-0.95L88.59-0.95Q88.59-0.42 87.79-0.18 86.98 0.05 86.27 0.05L86.27 0.05Q85.66 0.05 85.37-0.65 85.08-1.34 84.94-2.08 84.81-2.81 84.76-3L84.76-3Q83.39-1.46 81.6-0.61 79.8 0.24 77.97 0.24L77.97 0.24ZM128.97-22.95Q131.68-22.95 133.73-21.41 135.78-19.87 135.78-15.94L135.78-15.94 135.78-0.88Q135.78-0.39 135.36-0.16 134.95 0.07 134.05 0.07L134.05 0.07 133.9 0.07Q132.97 0.07 132.56-0.16 132.14-0.39 132.14-0.88L132.14-0.88 132.14-15.58Q132.14-17.55 131.08-18.68 130.02-19.8 127.97-19.8L127.97-19.8Q126.26-19.8 124.88-18.81 123.5-17.82 122.64-16.75L122.64-16.75Q122.69-16.16 122.69-15.87L122.69-15.87 122.69-0.88Q122.69 0.07 120.93 0.07L120.93 0.07 120.76 0.07Q119.03 0.07 119.03-0.88L119.03-0.88 119.03-15.58Q119.03-17.55 117.97-18.68 116.91-19.8 114.86-19.8L114.86-19.8Q113.44-19.8 112.27-19.13 111.1-18.46 110.33-17.68 109.56-16.89 109.56-16.8L109.56-16.8 109.56-0.88Q109.56-0.39 109.15-0.16 108.75 0.07 107.85 0.07L107.85 0.07 107.65 0.07Q106.75 0.07 106.35-0.16 105.94-0.39 105.94-0.88L105.94-0.88 105.94-16.11Q105.94-18.95 105.68-20.2 105.41-21.46 105.41-21.58L105.41-21.58Q105.41-22.12 106.23-22.35 107.04-22.58 107.75-22.58L107.75-22.58Q108.36-22.58 108.65-21.92 108.95-21.26 109.08-20.58 109.22-19.9 109.26-19.7L109.26-19.7Q110.46-21.09 112.19-22.02 113.93-22.95 115.86-22.95L115.86-22.95Q117.83-22.95 119.54-22.16 121.25-21.36 122.06-19.36L122.06-19.36Q123.4-20.95 125.21-21.95 127.01-22.95 128.97-22.95L128.97-22.95ZM148.59 0.24Q145.27 0.24 143.22-1.39 141.17-3.03 141.17-6.25L141.17-6.25Q141.17-9.64 143.25-11.36 145.32-13.09 148.31-13.59 151.3-14.09 155.58-14.16L155.58-14.16 155.58-16.21Q155.58-17.85 154.46-18.84 153.35-19.82 150.82-19.82L150.82-19.82Q148.89-19.82 147.43-19.37 145.98-18.92 144.71-18.29L144.71-18.29Q144.17-18.02 144.05-18.02L144.05-18.02Q143.76-18.02 143.41-18.44 143.05-18.87 142.8-19.41 142.54-19.95 142.54-20.19L142.54-20.19Q142.54-20.75 143.7-21.41 144.86-22.07 146.74-22.51 148.62-22.95 150.67-22.95L150.67-22.95Q154.75-22.95 156.99-21.17 159.24-19.38 159.24-16.16L159.24-16.16 159.24-6.42Q159.24-3.59 159.49-2.33 159.75-1.07 159.75-0.95L159.75-0.95Q159.75-0.42 158.93-0.18 158.11 0.05 157.41 0.05L157.41 0.05Q156.82 0.05 156.54-0.61 156.26-1.27 155.99-2.51L155.99-2.51 155.89-3Q154.55-1.51 152.73-0.63 150.91 0.24 148.59 0.24L148.59 0.24ZM148.79-2.91Q150.94-2.91 152.45-3.69 153.96-4.47 155.58-5.91L155.58-5.91 155.58-11.04Q152.35-11.01 150.28-10.77 148.2-10.52 146.64-9.53 145.08-8.54 145.08-6.47L145.08-6.47Q145.08-4.74 146.02-3.82 146.96-2.91 148.79-2.91L148.79-2.91ZM168.22-28.17Q166.49-28.17 166.49-29.13L166.49-29.13 166.49-31.69Q166.49-32.64 168.22-32.64L168.22-32.64 168.73-32.64Q170.49-32.64 170.49-31.69L170.49-31.69 170.49-29.13Q170.49-28.17 168.73-28.17L168.73-28.17 168.22-28.17ZM168.39 0.07Q166.66 0.07 166.66-0.88L166.66-0.88 166.66-21.83Q166.66-22.78 168.39-22.78L168.39-22.78 168.56-22.78Q170.32-22.78 170.32-21.83L170.32-21.83 170.32-0.88Q170.32 0.07 168.56 0.07L168.56 0.07 168.39 0.07ZM183.35 0.24Q181.18 0.24 179.47-1.07 177.76-2.39 177.76-5.74L177.76-5.74 177.76-31.69Q177.76-32.64 179.5-32.64L179.5-32.64 179.69-32.64Q181.4-32.64 181.4-31.69L181.4-31.69 181.4-6.08Q181.4-4.3 182.04-3.59 182.67-2.88 183.74-2.88L183.74-2.88Q184.55-2.88 185.01-2.98 185.48-3.08 185.62-3.08L185.62-3.08Q186.02-3.08 186.27-2.29 186.53-1.51 186.53-1.05L186.53-1.05Q186.53 0.24 183.35 0.24L183.35 0.24ZM195.53 0.42Q193.7 0.42 192.12-0.05 190.53-0.51 189.59-1.18 188.65-1.86 188.65-2.37L188.65-2.37Q188.65-2.61 188.91-3.15 189.16-3.69 189.52-4.11 189.87-4.54 190.16-4.54L190.16-4.54Q190.24-4.54 190.6-4.3L190.6-4.3Q191.58-3.66 192.67-3.22 193.75-2.78 195.27-2.78L195.27-2.78Q199.51-2.78 199.51-6.3L199.51-6.3Q199.51-7.3 199.11-7.98 198.71-8.67 197.77-9.19 196.83-9.72 195.19-10.21L195.19-10.21Q192.85-10.89 191.54-11.77 190.24-12.65 189.7-13.83 189.16-15.01 189.16-16.7L189.16-16.7Q189.16-18.51 190.08-19.95 190.99-21.39 192.64-22.19 194.29-23 196.36-23L196.36-23Q197.8-23 199.14-22.73 200.47-22.46 201.28-22.03 202.1-21.61 202.1-21.14L202.1-21.14Q202.1-20.8 201.87-20.23 201.64-19.65 201.3-19.23 200.95-18.8 200.69-18.8L200.69-18.8Q200.64-18.8 200.08-19.1 199.51-19.41 198.65-19.67 197.78-19.92 196.73-19.92L196.73-19.92Q195.07-19.92 193.98-19.18 192.9-18.43 192.9-17.19L192.9-17.19Q192.9-15.72 193.68-14.84 194.46-13.96 196.27-13.4L196.27-13.4Q199.05-12.55 200.51-11.69 201.98-10.84 202.6-9.61 203.22-8.37 203.22-6.37L203.22-6.37Q203.22-4.47 202.2-2.92 201.17-1.37 199.42-0.48 197.66 0.42 195.53 0.42L195.53 0.42Z" opacity="1" transform="matrix(1,0,0,1,0,0)" fill="#ffffff" class="undefined-text-0" data-fill-palette-color="primary" id="text-0"></path></svg></g></svg></g></svg></g></svg></g><g transform="matrix(1,0,0,1,140.57313137533708,0)"><svg viewBox="0 0 114.37373724932584 114.37373724932583" height="114.37373724932583" width="114.37373724932584"><g><svg></svg></g><g id="icon-0"><svg viewBox="0 0 114.37373724932584 114.37373724932583" height="114.37373724932583" width="114.37373724932584"><g><path d="M34.312 114.374c-18.95 0-34.312-15.362-34.312-34.312v-45.75c0-18.95 15.362-34.312 34.312-34.312h45.75c18.95 0 34.312 15.362 34.312 34.312v45.75c0 18.95-15.362 34.312-34.312 34.312z" fill="#ffffff" data-fill-palette-color="accent"></path></g><g transform="matrix(1,0,0,1,19.300007824662927,31.930016463232555)"><svg viewBox="0 0 75.77372159999999 50.51370432286072" height="50.51370432286072" width="75.77372159999999"><g><svg xmlns="http://www.w3.org/2000/svg" viewBox="14.017999649047852 26.01300048828125 71.96400451660156 47.9739990234375" xml:space="preserve" x="0" y="0" height="50.51370432286072" width="75.77372159999999" class="icon-x-0" data-fill-palette-color="quaternary" id="x-0"><path d="M85.982 26.013H14.018l35.984 23.989zM14.018 33.22v35.114l21.07-21.07zM85.982 68.334V33.22L64.914 47.269z" fill="#333366" data-fill-palette-color="quaternary"></path><path d="M53.33 54.989l-3.328 2.218-3.328-2.218-8.194-5.461-24.462 24.459h71.964L61.521 49.528z" fill="#333366" data-fill-palette-color="quaternary"></path></svg></g></svg></g></svg></g></svg></g><g></g></svg></g></svg><rect width="395.52" height="216.67086579071344" fill="none" stroke="none" visibility="hidden"></rect></g><defs></defs></svg>